<svg width="247" height="131" viewBox="0 0 247 131" fill="none" xmlns="http://www.w3.org/2000/svg">
<path d="M22.59 3.51834L22.4671 5.0133L22.59 3.51834ZM233.862 117.117L232.683 118.044L232.683 118.044L233.862 117.117ZM242.822 130.232C243.644 130.331 244.391 129.744 244.489 128.921L246.095 115.517C246.194 114.695 245.607 113.948 244.784 113.849C243.962 113.751 243.215 114.338 243.116 115.16L241.689 127.075L229.774 125.648C228.952 125.549 228.205 126.136 228.106 126.959C228.008 127.781 228.595 128.528 229.417 128.626L242.822 130.232ZM0.877036 3.23781L22.4671 5.0133L22.713 2.02339L1.12292 0.247901L0.877036 3.23781ZM232.683 118.044L241.821 129.67L244.179 127.816L235.041 116.19L232.683 118.044ZM22.4671 5.0133C105.208 11.8176 181.378 52.7733 232.683 118.044L235.041 116.19C183.221 50.2634 106.286 8.89612 22.713 2.02339L22.4671 5.0133Z" fill="#FFBE0B"/>
</svg>
