<svg width="263" height="151" viewBox="0 0 263 151" fill="none" xmlns="http://www.w3.org/2000/svg">
<path d="M186.92 21.8219L187.3 23.2728L187.3 23.2728L186.92 21.8219ZM51.2085 99.5559L50.1495 98.4936L50.1495 98.4936L51.2085 99.5559ZM1.78941 150.323C0.960981 150.322 0.290429 149.649 0.291687 148.821L0.312188 135.321C0.313446 134.492 0.986038 133.822 1.81446 133.823C2.64289 133.824 3.31344 134.497 3.31218 135.325L3.29396 147.325L15.2939 147.343C16.1224 147.345 16.7929 148.017 16.7917 148.846C16.7904 149.674 16.1178 150.345 15.2894 150.343L1.78941 150.323ZM262.456 3.56409L187.3 23.2728L186.539 20.3709L261.695 0.66221L262.456 3.56409ZM52.2676 100.618L2.85073 149.885L0.732637 147.761L50.1495 98.4936L52.2676 100.618ZM187.3 23.2728C136.243 36.6621 89.6483 63.3508 52.2676 100.618L50.1495 98.4936C87.9059 60.8517 134.968 33.8948 186.539 20.3709L187.3 23.2728Z" fill="#FFBE0B"/>
</svg>
